<svg id="visual" viewBox="0 0 900 600" width="900" height="600" xmlns="http://www.w3.org/2000/svg" xmlns:xlink="http://www.w3.org/1999/xlink" version="1.1"><path d="M0 336L30 327.5C60 319 120 302 180 287.2C240 272.3 300 259.7 360 270.3C420 281 480 315 540 320.2C600 325.3 660 301.7 720 298C780 294.3 840 310.7 870 318.8L900 327L900 601L870 601C840 601 780 601 720 601C660 601 600 601 540 601C480 601 420 601 360 601C300 601 240 601 180 601C120 601 60 601 30 601L0 601Z" fill="#FF4500" stroke-linecap="round" stroke-linejoin="miter"></path></svg>